# xmcd CD Database Entry
#
# Track frame offsets:
# 150
# 20527
# 38370
# 51317
# 72862
# 93312
# 115985
# 127277
# 145460
# 161222
# 182659
# 200800
# 215055
# 232315
# 250065
#
# Disc length: 3605 seconds
#
# Revision: 2
# Processed by: cddbd v1.4PL0 Copyright (c) Steve Scherf et al.
# Submitted via: tcd 2.0b
#
DISCID=eb0e130f
DTITLE=Steve Brooks - Purgatory Raod
DYEAR=1900
DGENRE=
TTITLE0=Purgatory Road
TTITLE1=The Bluebonnet Waltz
TTITLE2=Half an Inch of Heaven
TTITLE3=Dead Poets Society
TTITLE4=Hurt Me Tonight
TTITLE5=Father and Mother and Me (Seneca Sweat)
TTITLE6=Added Years to My Life
TTITLE7=Lighthouse
TTITLE8=The Great White Hope
TTITLE9=The Land of Catfish
TTITLE10=The River is a Woman
TTITLE11=Under the Desert Moon
TTITLE12=North of the Border
TTITLE13=(Deep in My Heart is) Texas
TTITLE14=The Fine Art of Letting Go
EXTD=
EXTT0=
EXTT1=
EXTT2=
EXTT3=
EXTT4=
EXTT5=
EXTT6=
EXTT7=
EXTT8=
EXTT9=
EXTT10=
EXTT11=
EXTT12=
EXTT13=
EXTT14=
PLAYORDER=
